<?xml version="1.0" encoding="UTF-8"?>
<!DOCTYPE svg PUBLIC "-//W3C//DTD SVG 1.1//EN" "http://www.w3.org/Graphics/SVG/1.1/DTD/svg11.dtd">
<!-- Creator: CorelDRAW 2019 (64-Bit) -->
<svg xmlns="http://www.w3.org/2000/svg" xml:space="preserve" width="1734px" height="916px" version="1.1" style="shape-rendering:geometricPrecision; text-rendering:geometricPrecision; image-rendering:optimizeQuality; fill-rule:evenodd; clip-rule:evenodd"
viewBox="0 0 1762 931.09"
 xmlns:xlink="http://www.w3.org/1999/xlink"
 xmlns:xodm="http://www.corel.com/coreldraw/odm/2003">
 <defs>
  <style type="text/css">
   <![CDATA[
    .fil1 {fill:#0096BC}
    .fil0 {fill:#4FCF00}
    .fil2 {fill:#4FCF00;fill-rule:nonzero}
   ]]>
  </style>
 </defs>
 <g id="Layer_x0020_1">
  <metadata id="CorelCorpID_0Corel-Layer"/>
  <path class="fil0" d="M1056.24 591.22l116.81 0 0 116.58 -116.81 0 0 -9.81c2.37,0.37 4.81,0.58 7.29,0.58 16.76,-0.03 39.3,-8.55 56.69,-11.67 20.65,-3.7 42.94,11.67 42.94,11.67 -8.71,-18.95 -28.51,-24.12 -46.35,-20.92 -17.84,3.22 -37.31,11.16 -54.41,11.16 -2.12,0 -4.17,-0.18 -6.16,-0.52l0 -6.44c0.74,0.12 1.49,0.23 2.27,0.31 21.53,2.14 46.07,-12.7 69.15,-12.15 7.86,0.19 15.29,2.29 22.57,7.26 -6.18,-9.18 -14.56,-11.62 -24.25,-12.02 -15.17,-0.61 -35.24,8.17 -51.13,11.48 -7.32,1.53 -13.46,1.53 -18.61,0.16l0 -7.44c3.12,1.17 6.52,1.82 10.17,1.82 18.8,0 39.89,-13.56 61.2,-11.69 1.08,0.1 2.15,0.25 3.22,0.43 -7.47,-3.86 -15.31,-5.47 -23.34,-5.47 -14.33,-0.01 -26.53,6.76 -37.25,6.76 -5.11,0 -9.92,-1.42 -14,-3.89l0 -46.36c2.28,-1.39 4.81,-2.45 7.48,-3.11 0.58,1.59 0.69,3.22 0.37,4.69 -1.82,8.43 6.07,7.38 6.07,3.14 0,-0.05 0,-0.09 0,-0.12 0.01,-0.87 -0.2,-1.96 -0.5,-2.93 -0.77,-2.06 -1.83,-3.83 -3.06,-5.32 1.2,-0.17 2.41,-0.26 3.64,-0.26l0.07 0.01c3.79,3.11 5.18,7.44 4.42,10.99 -2.14,9.88 7.08,8.66 7.08,3.66 0,-0.03 0,-0.07 0,-0.12 0.03,-1.02 -0.22,-2.31 -0.55,-3.43 -1.95,-5.08 -5.25,-8.63 -8.89,-10.98 8.65,0.99 17.52,7.95 15.52,17.23 -2.54,11.74 8.44,10.28 8.44,4.35 0,-0.05 0,-0.1 0,-0.14 0.04,-1.23 -0.28,-2.75 -0.67,-4.1 -4.3,-11.25 -13.52,-16.2 -23.95,-17.75 -3.05,-1.83 -6.27,-2.85 -9.11,-3.24 2.83,0.59 5.15,1.64 6.98,2.97 -1.29,-0.14 -2.59,-0.22 -3.91,-0.27 -2.79,-2.94 -6.24,-4.71 -9.43,-5.58l0 -9.52zm85.7 6.06l0 9.72c1.94,0.49 3.77,1.24 5.43,2.25l0.01 0c3.8,-3.79 9.95,-3.79 13.74,0l-6.87 6.86c1.01,1.66 1.78,3.5 2.25,5.44l0.01 0c5.37,0 9.73,4.34 9.73,9.7l-9.74 0c-0.47,1.94 -1.24,3.77 -2.25,5.44l0 0c3.81,3.79 3.81,9.94 0,13.73l-6.88 -6.86c-1.66,0.99 -3.49,1.76 -5.43,2.25l0 0c0,5.36 -4.36,9.71 -9.73,9.71l0 -9.71c-1.94,-0.49 -3.77,-1.26 -5.45,-2.25l0 0c-3.8,3.78 -9.96,3.78 -13.76,0l6.88 -6.87c-0.99,-1.67 -1.77,-3.5 -2.25,-5.44l-0.01 0c-5.37,0 -9.73,-4.35 -9.73,-9.7l9.74 0c0.48,-1.94 1.26,-3.78 2.25,-5.44l0 0c-3.79,-3.79 -3.79,-9.94 0,-13.72l6.88 6.86c1.68,-1.01 3.51,-1.76 5.45,-2.25l0 -0.01c0,-5.36 4.35,-9.71 9.73,-9.71zm-4.88 18.31c6,0 10.84,4.84 10.84,10.81 0,5.97 -4.84,10.82 -10.84,10.82 -5.97,0 -10.83,-4.85 -10.83,-10.82 0,-5.97 4.86,-10.81 10.83,-10.81zm-80.82 -8.72l0 -5.93c3.22,1.18 5.43,3.16 6.71,5.35 -2.28,0.03 -4.52,0.22 -6.71,0.58z"/>
  <path class="fil0" d="M1056.23 358.02l116.82 0 0 116.59 -42.26 0 -1.22 -35.31c1.15,2.04 2.55,3.76 4.17,5.23 3.77,3.42 30.22,25.96 33.46,22.46 3.24,-3.49 -21.28,-28.1 -24.98,-31.59 -3.17,-2.99 -7.24,-5.03 -12.9,-5.91 0.02,-0.1 0.02,-0.21 0.02,-0.32 0,-0.77 -0.28,-1.48 -0.75,-2.02 4.17,-3.92 6.39,-7.9 7.31,-12.15 1.08,-4.97 7.42,-39.1 2.77,-40.15 -4.65,-1.06 -13.75,32.44 -14.93,37.39 -1,4.22 -0.74,8.75 1.31,14.06 -0.81,0.34 -1.44,1 -1.74,1.82 -5.44,-1.62 -9.98,-1.54 -14.1,-0.22 -4.86,1.55 -37.64,13.13 -36.23,17.68 1.41,4.55 35.02,-4.34 39.91,-5.79 3.65,-1.09 7.03,-3.15 10.22,-6.63l-1.43 41.45 -65.45 0 0 -62.49 18.25 -0.05c5.85,-0.02 11.41,-1.01 12.72,4.75 0.64,2.84 -1.39,6.17 -4.39,6.85 -3.05,0.68 -6.66,-0.99 -6.13,-4.59 -3.33,2.52 3.34,12.57 12.63,6.28 2.8,-1.9 4.12,-5.63 4.12,-8.98 0,-5.61 -5.04,-11.22 -11.24,-11.22l-25.96 0 0 -6.69 21.38 0c4.47,0 8.09,-4.03 8.09,-8.07 0,-2.41 -0.95,-5.09 -2.97,-6.45 -6.67,-4.53 -11.47,2.7 -9.08,4.51 -0.38,-2.59 2.22,-3.79 4.41,-3.3 2.16,0.49 3.62,2.88 3.16,4.92 -0.94,4.15 -4.94,3.44 -9.15,3.43l-15.84 -0.05 0 -7.98c1.49,-2.13 3.83,-3.65 6.61,-4 2.36,-0.29 4.62,0.3 6.46,1.52l0.97 0.77c4.74,-16.2 25.67,-12.93 27.8,1.17l0.03 -0.01c-0.42,1.61 -0.16,3.21 0.8,3.94 -0.51,-3.52 3.02,-5.16 6,-4.48 2.94,0.66 4.95,3.92 4.29,6.69 -1.34,5.7 -6.93,4.57 -12.44,4.65l-6.78 0.1c-0.5,2.85 -2.36,5.64 -4.38,6.65l18.7 0c6.07,0 11.05,-5.07 11.05,-10.97 0,-4.03 -1.8,-6.74 -4.41,-8.78 -2.68,-2.1 -6.37,-2.61 -8.61,-2.11 -2.62,-6.94 -9.62,-11.89 -17.23,-11.89 -7.49,0 -13.56,4.22 -16.47,10.33 -1.63,-0.7 -3.47,-0.99 -5.37,-0.76 -2.92,0.37 -5.4,1.93 -7.02,4.13l0 -24.41zm59.32 56.02c-5.73,0.01 -10.94,1.71 -15.31,3.81 4.24,-2.92 9.53,-5.31 15.58,-5.78 -0.11,0.66 -0.2,1.32 -0.27,1.97zm-9.59 6.74c2.71,-1.52 5.9,-2.5 9.44,-2.87 0.01,0.41 0.03,0.82 0.06,1.22 -2.86,0.02 -5.74,0.44 -8.63,1.36 -0.29,0.1 -0.58,0.19 -0.87,0.29zm11.42 -15.13c-6.84,0.78 -12.87,2.9 -17.76,6.14 4.96,-2.28 10.76,-3.62 17.16,-3.85 0.2,-0.76 0.4,-1.53 0.6,-2.29z"/>
  <polygon class="fil1" points="278.13,731.69 139.06,428.26 0,124.83 128.98,124.83 139.06,146.83 278.13,450.26 417.19,146.83 427.28,124.83 556.26,124.83 417.19,428.26 "/>
  <polygon class="fil1" points="716.65,124.83 716.65,532.91 588.95,532.91 588.95,124.83 "/>
  <polygon class="fil1" points="838.57,124.83 896.98,124.83 1013.8,124.83 1013.8,241.42 896.98,241.42 896.98,358.02 1013.8,358.02 1013.8,474.61 896.98,474.61 896.98,591.21 1013.8,591.21 1013.8,707.81 896.98,707.81 896.98,707.81 769.28,707.81 769.28,124.83 "/>
  <path class="fil1" d="M1483.88 100.94l-139.07 303.43 -139.06 303.44 128.98 0 10.08 -22 40.19 -94.6 197.75 0 40.19 94.6 10.08 22 128.98 0 -139.06 -303.44 -139.06 -303.43zm-53.95 384.53l53.95 -126.98 53.94 126.98 -107.89 0z"/>
  <path class="fil2" d="M652.8 577.41c22.57,0 42.73,10.33 55.97,26.52 -5.5,2.97 -12.17,5.5 -19.69,7.44 -4.45,-12.01 -10.93,-21.65 -18.64,-27.55 5.33,6.95 9.74,16.96 12.73,28.92 -8.34,1.72 -17.54,2.75 -27.23,2.93 -0.63,-20.27 -1.8,-33.91 -3.14,-33.91 -1.34,0 -2.51,13.64 -3.14,33.91 -9.69,-0.18 -18.89,-1.21 -27.23,-2.93 3,-11.96 7.4,-21.97 12.73,-28.92 -7.71,5.9 -14.19,15.54 -18.64,27.55 -7.52,-1.94 -14.19,-4.47 -19.69,-7.44 13.25,-16.19 33.4,-26.52 55.97,-26.52zm55.98 26.53c10.16,12.42 16.26,28.28 16.26,45.57 0,17.28 -6.1,33.15 -16.26,45.57 -4.76,-4.45 -11.02,-8.3 -18.37,-11.29 3.03,-9.42 4.84,-20.11 5.1,-31.47 15.35,-0.66 25.17,-1.68 25.17,-2.81 0,-1.14 -9.82,-2.15 -25.17,-2.81 -0.26,-11.37 -2.07,-22.05 -5.1,-31.48 7.35,-2.99 13.61,-6.83 18.37,-11.28zm-0.01 91.15c-13.24,16.18 -33.4,26.52 -55.97,26.52 -22.57,0 -42.72,-10.34 -55.97,-26.52 5.5,-2.97 12.17,-5.5 19.69,-7.44 4.45,12.01 10.93,21.65 18.64,27.55 -5.33,-6.96 -9.73,-16.96 -12.73,-28.92 8.34,-1.72 17.54,-2.75 27.23,-2.94 0.63,20.28 1.8,33.92 3.14,33.92 1.34,0 2.51,-13.64 3.14,-33.92 9.69,0.19 18.89,1.22 27.23,2.94 -2.99,11.96 -7.4,21.96 -12.73,28.92 7.71,-5.9 14.19,-15.54 18.64,-27.55 7.52,1.94 14.19,4.46 19.69,7.44zm-111.95 -0.01c-10.16,-12.42 -16.26,-28.29 -16.26,-45.57 0,-17.29 6.1,-33.15 16.26,-45.57 4.76,4.45 11.02,8.29 18.37,11.28 -3.02,9.43 -4.84,20.11 -5.1,31.48 -15.35,0.66 -25.17,1.67 -25.17,2.81 0,1.13 9.82,2.15 25.17,2.81 0.26,11.36 2.08,22.05 5.1,31.47 -7.35,3 -13.61,6.84 -18.37,11.29zm59.3 -73.02c0.17,7.35 0.28,15.39 0.3,23.84 11.29,0.03 21.84,0.21 31,0.5 -0.19,-10.31 -1.3,-20.09 -3.17,-28.95 -8.44,2.68 -17.98,4.32 -28.13,4.61zm-34.77 -4.61c-1.87,8.86 -2.98,18.64 -3.17,28.95 9.16,-0.29 19.72,-0.47 31,-0.5 0.02,-8.45 0.13,-16.49 0.31,-23.84 -10.15,-0.29 -19.7,-1.93 -28.14,-4.61zm62.9 64.12c1.87,-8.86 2.98,-18.64 3.17,-28.95 -9.16,0.29 -19.71,0.47 -31,0.5 -0.02,8.45 -0.13,16.48 -0.3,23.83 10.15,0.3 19.69,1.94 28.13,4.62zm-34.76 -4.62c-0.18,-7.35 -0.29,-15.38 -0.31,-23.83 -11.28,-0.03 -21.84,-0.21 -31,-0.5 0.19,10.31 1.3,20.09 3.17,28.95 8.44,-2.68 17.99,-4.32 28.14,-4.62z"/>
  <path class="fil0" d="M1108.47 132.34c1.77,0.92 21.8,6.41 23.43,6.37l1.52 -7.61 -21.26 -2.84c-3.67,-0.49 -3.72,0.13 -3.69,4.08zm-21.83 100.31l12.7 -11.66c0.06,-3.78 0.02,-2.99 -0.26,-6.71l-1.42 -7.66c-1.28,1.54 -13.56,8.44 -11.02,26.03zm18.48 -11.92l0.14 15.15c4,-0.53 16.77,-12.21 20.02,-16.98l-5.29 -9.74c-4.4,1.46 -10.83,8.6 -14.87,11.57zm-2.26 -17.65c-0.42,4.46 0.63,10.36 1.69,13.59l12.66 -11.74c-0.52,-4.31 -2.24,-7.7 -4.92,-10.39 -3.51,2.79 -6.52,5.07 -9.43,8.54zm12.87 -12.24l5.69 10.7 15.48 -13.41 -8.08 -7.77 -13.09 10.48zm8.68 14.26l2.7 4.92c1.02,1.95 1.91,3.19 3.05,4.81 3.21,-1.5 16.83,-11.76 18.39,-16.69l-7.85 -6.82c-4.38,2.21 -12.08,9.62 -16.29,13.78zm7.62 15.07l8.45 14.98c4.13,-4.2 8,-7.26 12.44,-10.9 3.51,-2.88 9.91,-7.87 12.76,-11.08l-12.34 -10.95c-4.49,3.12 -18.01,13.82 -21.31,17.95zm-75.8 -95.34l43.8 0c-1.06,14.38 -12.17,24.94 -24.7,26.85 -7.18,1.1 -13.71,-0.28 -19.1,-3.29l0 -23.56zm50.13 0l66.69 0 0 116.59 -116.82 0 0 -66.7c1.95,-6.78 3.66,-13.12 3.85,-14.87l-3.85 -1.41 0 -3c5.89,2.58 12.72,3.61 20.12,2.48 15.35,-2.34 28.95,-15.38 30.01,-33.09zm-40.99 60.81l7.59 0.15 -1 -24.54c-3.67,-0.24 -4.5,-0.97 -4.9,2.28l-1.69 22.11zm13.9 -25.19l9.55 39.33 12.07 -9.68c-0.59,-2.68 -13.21,-30.87 -14.28,-32.01l-7.34 2.36zm13.95 -6.41l13.15 21.3c2.03,-0.96 5.81,-4.85 8.27,-6.19 -0.44,-1.58 -15.72,-15.63 -17.84,-17.48l-3.58 2.37zm8.61 -7.96c1.39,1.68 25.99,20.11 28.03,20.65 1.48,-1.59 6.61,-9.83 7.21,-12.32l-30.99 -15.05c-1.68,1.57 -3.5,4.57 -4.25,6.72z"/>
  <path class="fil0" d="M1184.57 113.48c66.43,-2.78 115.8,-56.71 112.46,-113.48 -45.74,1.54 -84.39,25.99 -102.78,66.05 -4.01,8.72 -7.84,19.41 -9.4,30.37 17.3,-21.41 48.53,-52.64 69.04,-61.77l-69.32 78.83z"/>
  <path class="fil1" d="M493.67 771.95l-5.82 14.96c-5.53,-4.16 -14.27,-6.23 -26.25,-6.23 -11.68,0 -20.78,4.95 -27.31,14.89 -6.54,9.94 -9.81,22.19 -9.81,36.73 0,13.79 3.3,25.36 9.92,34.74 6.63,9.34 15.73,14.03 27.35,14.03 11.83,0 20.99,-4.21 27.43,-12.67l9.67 13.38c-10.17,9.97 -23.19,14.96 -39.09,14.96 -16.86,0 -29.99,-6.06 -39.44,-18.16 -9.49,-12.11 -14.21,-27.83 -14.21,-47.17 0,-18.54 5.02,-34.24 15.04,-47.11 10.01,-12.85 23.33,-19.29 39.95,-19.29 13.64,0 24.49,2.32 32.57,6.94zm45.65 75.89c0,-14.39 3.87,-26.02 11.63,-34.86 7.75,-8.84 17.95,-13.26 30.61,-13.26 13.35,0 23.69,4.25 31.06,12.76 7.37,8.48 11.06,20.26 11.06,35.36 0,15.02 -3.78,26.85 -11.32,35.55 -7.55,8.66 -17.81,12.99 -30.8,12.99 -13.31,0 -23.66,-4.39 -31.09,-13.14 -7.43,-8.75 -11.15,-20.56 -11.15,-35.4zm17.48 0c0,23.35 8.26,35.01 24.76,35.01 7.67,0 13.7,-3.11 18.07,-9.37 4.37,-6.26 6.57,-14.81 6.57,-25.64 0,-23.05 -8.2,-34.59 -24.64,-34.59 -7.55,0 -13.55,3.06 -18.04,9.2 -4.49,6.14 -6.72,14.59 -6.72,25.39zm171.17 46.76l0 -54.2c0,-9.91 -1.48,-16.85 -4.49,-20.83 -2.97,-3.98 -7.99,-5.96 -15,-5.96 -3.78,0 -7.73,1.12 -11.87,3.38 -4.1,2.28 -7.28,5.04 -9.48,8.36l0 69.25 -16.58 0 0 -93.1 11.32 0 5.23 11.99c5.47,-9.17 14.39,-13.77 26.78,-13.77 20.46,0 30.68,12.4 30.68,37.24l0 57.64 -16.59 0zm63.4 -5.52l5.82 -15.66c9.22,6.05 16.62,9.07 22.24,9.07 10.19,0 15.27,-4.3 15.27,-12.87 0,-6.17 -4.93,-11.45 -14.8,-15.87 -7.58,-3.47 -12.69,-6.11 -15.34,-7.92 -2.64,-1.78 -4.93,-3.83 -6.86,-6.12 -1.96,-2.31 -3.42,-4.74 -4.37,-7.32 -0.95,-2.58 -1.43,-5.34 -1.43,-8.31 0,-7.65 2.8,-13.62 8.38,-17.92 5.59,-4.3 12.88,-6.44 21.88,-6.44 6.81,0 15.4,2.14 25.74,6.44l-4.69 15.28c-6.57,-5.22 -13.17,-7.83 -19.8,-7.83 -3.95,0 -7.28,0.92 -9.99,2.79 -2.7,1.86 -4.04,4.21 -4.04,7.06 0,5.96 3.39,10.5 10.17,13.58l11.86 5.4c7.22,3.3 12.51,7.06 15.81,11.31 3.3,4.24 4.96,9.55 4.96,15.93 0,8.34 -2.94,14.89 -8.79,19.61 -5.86,4.72 -13.98,7.09 -24.35,7.09 -9.81,0 -19.02,-2.43 -27.67,-7.3zm123.4 -87.58l0 59.43c0,14.39 6.25,21.56 18.7,21.56 5.47,0 10.43,-1.57 14.98,-4.68 4.52,-3.15 7.49,-6.77 8.95,-10.89l0 -65.42 16.58 0 0 93.1 -16.58 0 0 -12.88c-1.85,3.65 -5.59,7.01 -11.18,10.06 -5.62,3.06 -11.08,4.6 -16.44,4.6 -10.19,0 -18.04,-2.94 -23.45,-8.78 -5.44,-5.85 -8.14,-14.18 -8.14,-24.95l0 -61.15 16.58 0zm112.44 66.81l0 -104.9 16.59 0 0 102.11c0,4.99 1.43,8.91 4.28,11.78 2.88,2.88 6.63,4.31 11.23,4.31l0 14.77c-21.4,0 -32.1,-9.35 -32.1,-28.07zm86.7 -53.81l-10.88 0 0 -13 10.88 0 0 -19.46 16.59 -6.35 0 25.81 25.68 0 0 13 -25.68 0 0 46.31c0,7.83 1.33,13.41 3.98,16.73 2.65,3.29 6.92,4.95 12.81,4.95 4.25,0 8.68,-1.06 13.23,-3.2l2.44 14.48c-6.87,1.75 -14.42,2.61 -22.66,2.61 -7.4,0 -13.64,-2.73 -18.75,-8.22 -5.08,-5.49 -7.64,-12.4 -7.64,-20.77l0 -52.89zm111.28 -48.24c2.82,0 5.26,1.01 7.28,2.99 1.99,2.02 3,4.43 3,7.18 0,2.85 -1.01,5.28 -3,7.3 -2.02,1.99 -4.46,3 -7.28,3 -2.79,0 -5.2,-1.01 -7.22,-3 -2,-2.02 -3.01,-4.45 -3.01,-7.3 0,-2.81 0.98,-5.25 2.98,-7.2 1.96,-1.99 4.4,-2.97 7.25,-2.97zm-9.16 128.34l0 -79.21 -12.84 0 0 -13.89 29.43 0 0 93.1 -16.59 0zm129.89 0l0 -54.2c0,-9.91 -1.49,-16.85 -4.49,-20.83 -2.97,-3.98 -7.99,-5.96 -15.01,-5.96 -3.77,0 -7.73,1.12 -11.86,3.38 -4.1,2.28 -7.28,5.04 -9.48,8.36l0 69.25 -16.59 0 0 -93.1 11.33 0 5.23 11.99c5.47,-9.17 14.39,-13.77 26.78,-13.77 20.45,0 30.68,12.4 30.68,37.24l0 57.64 -16.59 0zm66.07 25.48l8.98 -13.2c9.66,6.41 18.54,9.61 26.69,9.61 7.52,0 13.43,-1.27 17.74,-3.85 4.34,-2.58 6.51,-5.79 6.51,-9.62 0,-7.5 -5.47,-11.27 -16.38,-11.27 -1.87,0 -5.23,0.48 -10.1,1.42 -4.91,0.95 -8.71,1.43 -11.42,1.43 -13.25,0 -19.88,-4.99 -19.88,-14.98 0,-3.06 1.54,-5.85 4.64,-8.34 3.09,-2.49 6.92,-4.3 11.5,-5.4 -13.14,-6.14 -19.71,-16.82 -19.71,-32.04 0,-9.73 3.39,-17.86 10.2,-24.36 6.8,-6.49 15.19,-9.76 25.18,-9.76 9.18,0 16.34,1.9 21.51,5.67l8.3 -9.94 10.79 10.18 -9.93 7.5c4.25,5.49 6.36,12.7 6.36,21.57 0,9.41 -2.94,17.27 -8.8,23.67 -5.85,6.38 -13.55,10.03 -23.09,10.95l-13.68 1.43c-1.63,0.17 -3.8,0.8 -6.54,1.87 -2.7,1.06 -4.07,2.46 -4.07,4.18 0,2.37 2.85,3.56 8.53,3.56 2.5,0 6.39,-0.45 11.68,-1.34 5.29,-0.89 9.22,-1.33 11.77,-1.33 9.19,0 16.35,2.2 21.49,6.55 5.15,4.37 7.7,10.45 7.7,18.19 0,8.58 -3.83,15.49 -11.53,20.77 -7.7,5.25 -17.45,7.89 -29.25,7.89 -6.03,0 -12.39,-1.07 -19.08,-3.2 -6.66,-2.14 -12.04,-4.75 -16.11,-7.81zm35.07 -107.01c-5.76,0 -10.46,2.02 -14.09,6.08 -3.65,4.07 -5.46,9.02 -5.46,14.81 0,6.5 1.75,11.9 5.29,16.14 3.5,4.27 8.26,6.41 14.26,6.41 5.89,0 10.5,-2.08 13.82,-6.23 3.3,-4.16 4.97,-9.59 4.97,-16.32 0,-5.79 -1.78,-10.74 -5.38,-14.81 -3.57,-4.06 -8.06,-6.08 -13.41,-6.08z"/>
 </g>
</svg>
